/* XPM */
static const char *icon[] = {
/* columns rows colors chars-per-pixel */
"64 64 214 2",
"   c #020202020202",
".  c #080807070707",
"X  c #070708080707",
"o  c #0C0C0B0B0202",
"O  c #060607070808",
"+  c #070709090909",
"@  c #0A0A0C0C0C0C",
"#  c #10100E0E0000",
"$  c #0D0D10100F0F",
"%  c #161614140000",
"&  c #131312120808",
"*  c #0D0D0F0F1111",
"=  c #0E0E12121313",
"-  c #0F0F1A1A1B1B",
";  c #111114141515",
":  c #151519191717",
">  c #141417171919",
",  c #15151A1A1B1B",
"<  c #18181D1D1E1E",
"1  c #17171F1F2222",
"2  c #19191F1F2020",
"3  c #171720202222",
"4  c #1B1B23232323",
"5  c #1F1F27272828",
"6  c #1E1E29292929",
"7  c #1E1E2F2F3030",
"8  c #212124242424",
"9  c #232329292626",
"0  c #212126262A2A",
"q  c #23232B2B2C2C",
"w  c #29292B2B2D2D",
"e  c #25252F2F3030",
"r  c #2A2A2E2E3232",
"t  c #262631313232",
"y  c #2A2A33333535",
"u  c #2C2C36363838",
"i  c #2E2E39393B3B",
"p  c #323235353636",
"a  c #32323C3C3D3D",
"s  c #3A3A3E3E3E3E",
"d  c #353540403F3F",
"f  c #33333E3E4141",
"g  c #3B3B3E3E4141",
"h  c #353542424444",
"j  c #3B3B44444444",
"k  c #363647474848",
"l  c #393946464949",
"z  c #3C3C4B4B4D4D",
"x  c #3F3F4E4E5050",
"c  c #3F3F52525454",
"v  c #404043434343",
"b  c #434345454949",
"n  c #44444B4B4C4C",
"m  c #49494C4C4D4D",
"M  c #43434C4C5252",
"N  c #4B4B4F4F5353",
"B  c #434353535555",
"V  c #4B4B52525454",
"C  c #454556565959",
"Z  c #4B4B56565959",
"A  c #464659595B5B",
"S  c #4B4B5B5B5D5D",
"D  c #505053535555",
"F  c #525255555A5A",
"G  c #52525B5B5C5C",
"H  c #5B5B5C5C5E5E",
"J  c #4C4C5E5E6161",
"K  c #5B5B5F5F6464",
"L  c #4D4D61616464",
"P  c #4C4C66666A6A",
"I  c #525264646666",
"U  c #5B5B63636464",
"Y  c #525266666969",
"T  c #5F5F66666C6C",
"R  c #54546A6A6D6D",
"E  c #5A5A6B6B6D6D",
"W  c #57576D6D7070",
"Q  c #5A5A6E6E7171",
"!  c #565672727676",
"~  c #5C5C72727575",
"^  c #575774747878",
"/  c #5D5D75757878",
"(  c #5E5E7A7A7E7E",
")  c #616165656666",
"_  c #646467676969",
"`  c #63636B6B6C6C",
"'  c #6B6B6B6B6C6C",
"]  c #65656C6C7070",
"[  c #6B6B6D6D7070",
"{  c #656570707474",
"}  c #6C6C72727474",
"|  c #606077777979",
" . c #63637A7A7D7D",
".. c #6A6A7B7B7C7C",
"X. c #717174747474",
"o. c #707074747A7A",
"O. c #74747B7B7B7B",
"+. c #7B7B7C7C7D7D",
"@. c #5F5F7C7C8181",
"#. c #64646E6E8080",
"$. c #64647D7D8181",
"%. c #6A6A7E7E8282",
"&. c #6E6E7B7B8888",
"*. c #73737C7C8080",
"=. c #7E7E7F7F8181",
"-. c #636381818585",
";. c #696983838686",
":. c #656586868A8A",
">. c #6C6C86868989",
",. c #6C6C89898D8D",
"<. c #7B7B86868686",
"1. c #707080808E8E",
"2. c #7C7C83838D8D",
"3. c #71718A8A8E8E",
"4. c #7E7E8B8B8D8D",
"5. c #6A6A8B8B9090",
"6. c #73738E8E9191",
"7. c #79798D8D9292",
"8. c #6E6E91919797",
"9. c #767691919494",
"0. c #7B7B93939696",
"q. c #737396969B9B",
"w. c #7C7C96969999",
"e. c #7E7E98989C9C",
"r. c #77779D9DA2A2",
"t. c #7B7B9D9DA1A1",
"y. c #7A7AA0A0A5A5",
"u. c #7C7CA4A4AAAA",
"i. c #858587878888",
"p. c #82828A8A8A8A",
"a. c #8B8B8C8C8D8D",
"s. c #81818A8A9595",
"d. c #858593939494",
"f. c #898993939393",
"g. c #818197979A9A",
"h. c #8B8B97979898",
"j. c #82829A9A9E9E",
"k. c #8A8A9A9A9C9C",
"l. c #95959B9B9C9C",
"z. c #99999C9C9C9C",
"x. c #85859D9DA1A1",
"c. c #88889E9EA1A1",
"v. c #8787A0A0A3A3",
"b. c #8B8BA2A2A4A4",
"n. c #8F8FA5A5A8A8",
"m. c #8383A9A9AEAE",
"M. c #9393A4A4A5A5",
"N. c #9A9AA5A5A6A6",
"B. c #9292A6A6AAAA",
"V. c #9595AAAAACAC",
"C. c #9B9BADADAEAE",
"Z. c #8282ACACB3B3",
"A. c #9B9BAEAEB1B1",
"S. c #8B8BB6B6BCBC",
"D. c #8E8EB8B8BEBE",
"F. c #9E9EB1B1B3B3",
"G. c #A4A4ABABACAC",
"H. c #A8A8AEAEAEAE",
"J. c #ADADAEAEB1B1",
"K. c #A2A2B4B4B6B6",
"L. c #ADADB5B5B5B5",
"P. c #A4A4B6B6B9B9",
"I. c #A8A8B7B7B9B9",
"U. c #A6A6B8B8BABA",
"Y. c #AAAABBBBBDBD",
"T. c #B2B2B6B6B7B7",
"R. c #B2B2B7B7B9B9",
"E. c #B4B4BDBDBEBE",
"W. c #8E8EBBBBC3C3",
"Q. c #9090BEBEC5C5",
"!. c #AEAEBFBFC1C1",
"~. c #B0B0BFBFC1C1",
"^. c #9595C4C4CCCC",
"/. c #9898C7C7CECE",
"(. c #9898C8C8CFCF",
"). c #9797C8C8D0D0",
"_. c #9B9BCCCCD4D4",
"`. c #9E9ED0D0D7D7",
"'. c #9E9ED2D2DADA",
"]. c #AEAEC0C0C1C1",
"[. c #B2B2C2C2C4C4",
"{. c #BBBBC3C3C4C4",
"}. c #B7B7C7C7C9C9",
"|. c #BABAC7C7C9C9",
" X c #BCBCCACACBCB",
".X c #A1A1D5D5DDDD",
"XX c #A4A4D9D9E2E2",
"oX c #A8A8DFDFE8E8",
"OX c #A9A9E0E0EAEA",
"+X c #C2C2C5C5C5C5",
"@X c #C7C7C7C7C8C8",
"#X c #C3C3CDCDCDCD",
"$X c #C9C9CCCCCCCC",
"%X c #C3C3CECED1D1",
"&X c #C5C5D1D1D2D2",
"*X c #CACAD3D3D4D4",
"=X c #CCCCD6D6D9D9",
"-X c #CECED8D8DADA",
";X c #D5D5D7D7D7D7",
":X c #D4D4DBDBDCDC",
">X c #D9D9DDDDDDDD",
",X c #D6D6DFDFE0E0",
"<X c #DBDBDFDFE1E1",
"1X c #DCDCE2E2E4E4",
"2X c #E1E1E5E5E6E6",
"3X c #E5E5E9E9EAEA",
"4X c #EAEAEDEDEEEE",
"5X c #ECECF0F0EFEF",
"6X c #EBEBEEEEF1F1",
"7X c #EFEFF1F1F2F2",
"8X c #F2F2F4F4F4F4",
"9X c #F6F6F8F8F7F7",
"0X c #F9F9FAFAFBFB",
"qX c None",
/* pixels */
"qXqXqXqXqXqXqXqXqXqXqXqXqXqXqXqXqXqXqXqXqXqXqXqXqXqXqXqXqXqXqXqXqXqXqXqXqXqXqXqXqXqXqXqXqXqXqXqXqXqXqXqXqXqXqXqXqXqXqXqXqXqXqXqX",
"qXqXqXqXqXqXqXqXqXqXqXqXqXqXqXqXqXqXqXqXqXqXqXqXqXqXqXqXqXqXqXqXqXqXqXqXqXqXqXqXqXqXqXqXqXqXqXqXqXqXqXqXqXqXqXqXqXqXqXqXqXqXqXqX",
"qXqXqXqXqXqXqXqXqXqXqXqXqXqXqXqXqXqXqXqXqXqXqXqXqXqXqXqXqXD _ } ' H m qXqXqXqXqXqXqXqXqXqXqXqXqXqXqXqXqXqXqXqXqXqXqXqXqXqXqXqXqX",
"qXqXqXqXqXqXqXqXqXqXqXqXqXqXqXqXqXqXqXqXqXqXqXqXqX; y a.;X2X7X5X4X3X4X>Xa.p 2 qXqXqXqXqXqXqXqXqXqXqXqXqXqXqXqXqXqXqXqXqXqXqXqXqX",
"qXqXqXqXqXqXqXqXqXqXqXqXqXqXqXqXqXqXqXqXqXqXqX; w z.<X>X1X3X4X2X3X3X3X8X9X5XJ.D b qXqXqXqXqXqXqXqXqXqXqXqXqXqXqXqXqXqXqXqXqXqXqX",
"qXqXqXqXqXqXqXqXqXqXqXqXqXqXqXqXqXqXqXqXqXqX; m $X;X>X$X;X;X@X;X<X>X:X5X<X$X2X>X) f F qXqXqXqXqXqXqXqXqXqXqXqXqXqXqXqXqXqXqXqXqX",
"qXqXqXqXqXqXqXqXqXqXqXqXqXqXqXqXqXqXqXqXqX; ' {.@XG.E.{.$XL.~.{.#X&X*X&X X=X:X:X1Xl.N N qXqXqXqXqXqXqXqXqXqXqXqXqXqXqXqXqXqXqXqX",
"qXqXqXqXqXqXqXqXqXqXqXqXqXqXqXqXqXqXqXqX$ F T.L.L.L.L.E.N.N.Y.[.#X X&X X X X&X:X6X6X<.u r qXqXqXqXqXqXqXqXqXqXqXqXqXqXqXqXqXqXqX",
"qXqXqXqXqXqXqXqXqXqXqXqXqXqXqXqXqXqXqX@ p G.l.l.G.z.H.G.C.K.[.}.#X X[.Y.[.].Y.[. X=X XE 0 ; qXqXqXqXqXqXqXqXqXqXqXqXqXqXqXqXqXqX",
"qXqXqXqXqXqXqXqXqXqXqXqXqXqXqXqXqXqX+ = a.i.} K G E { ..d.C.Y.!.[.}.].U.Y.K.P.].}.U.~.N.n 2 qXqXqXqXqXqXqXqXqXqXqXqXqXqXqXqXqXqX",
"qXqXqXqXqXqXqXqXqXqXqXqXqXqXqXqXqX@ @ b i.X.F f.+X$X@XR.2.*.d.M.[.].P.Y.K.K.P.Y.Y.U.[.{.0.h * qXqXqXqXqXqXqXqXqXqXqXqXqXqXqXqXqX",
"qXqXqXqXqXqXqXqXqXqXqXqXqXqXqXqXqX@ ; O.) m i.+.b w w b } o.T f.F.c.d.p.*.7.h.k.b.N.U.U.C.C = O qXqXqXqXqXqXqXqXqXqXqXqXqXqXqXqX",
"qXqXqXqXqXqXqXqXqXqXqXqXqXqXqXqX> = 0 _ n [ s         O @ p K ] O.` H N Z *.s._ G G <.h.l.A 4 * qXqXqXqXqXqXqXqXqXqXqXqXqXqXqXqX",
"qXqXqXqXqXqXqXqXqXqXqXqXqXqXqXqX. @ w p g w                 w M m d b X.+.[ _ X.=.] V F <.G 1 1 > qXqXqXqXqXqXqXqXqXqXqXqXqXqXqX",
"qXqXqXqXqXqXqXqXqXqXqXqXqXqXqXqX= 2 w 8 r                     r w r v <         $ d H M T U u 5 , qXqXqXqXqXqXqXqXqXqXqXqXqXqXqX",
"qXqXqXqXqXqXqXqXqXqXqXqXqXqXqX* = 8 t a *                     * 9 <                 : n ` { M r , qXqXqXqXqXqXqXqXqXqXqXqXqXqXqX",
"qXqXqXqXqXqXqXqXqXqXqXqXqXqXqX= 4 0 g e                         ;                     > ] 7.Y d 2 qXqXqXqXqXqXqXqXqXqXqXqXqXqXqX",
"qXqXqXqXqXqXqXqXqXqXqXqXqXqXqX; t J l M                   O 8 O   + @                   f s.1.x 0 qXqXqXqXqXqXqXqXqXqXqXqXqXqXqX",
"qXqXqXqXqXqXqXqXqXqXqXqXqXqXqX: q L S f                     : +   O p                   > &.w.x 0 qXqXqXqXqXqXqXqXqXqXqXqXqXqXqX",
"qXqXqXqXqXqXqXqXqXqXqXqXqXqXqX< q S ~ y                                                 * 6./ C 5 qXqXqXqXqXqXqXqXqXqXqXqXqXqXqX",
"qXqXqXqXqXqXqXqXqXqXqXqXqXqXqX, k / 0.R                                                 : Y L S V qXqXqXqXqXqXqXqXqXqXqXqXqXqXqX",
"qXqXqXqXqXqXqXqXqXqXqXqXqXqXqXq S I ! Y O                 O     O O                     q C J S A qXqXqXqXqXqXqXqXqXqXqXqXqXqXqX",
"qXqXqXqXqXqXqXqXqXqXqXqXqXqXqX5 C W >.&.,                 O = ; 8 0 ;                 @ h x k Z T z qXqXqXqXqXqXqXqXqXqXqXqXqXqX",
"qXqXqXqXqXqXqXqXqXqXqXqXqXqXqX5 h a C #.y               + = , 4 4 6 e ,             + t a i t h q q qXqXqXqXqXqXqXqXqXqXqXqXqXqX",
"qXqXqXqXqXqXqXqXqXqXqXqXqXqX> ; , , t d 4           O @ $ + + + 4 t t 7 6 O       @ q q q 9 > 9 > ; qXqXqXqXqXqXqXqXqXqXqXqXqXqX",
"qXqXqXqXqXqXqXqXqXqX  @ @ = ; ; 2 2 < 4 5 6 5 0 q y , = = = @ @ @ 4 u t 6 4 C z b j d h a u y t y t q q 0 0 qXqXqXqXqXqXqXqXqXqX",
"qXqXqXqXqXqXqXqXqXqX  3 , 3 3 O 4 7 ; 6 t 7 ; , 3 q 3 , = : : ; = @ 3 e < : y r 9 8 8 : : ; $ $ @ X + @ = @ qXqXqXqXqXqXqXqXqXqX",
"qXqXqXqXqXqXqXqXqXqX                        O O X + + @ 4 : 2 2 > * @ : O . @ @ . . .             X   @ $ $ = qXqXqXqXqXqXqXqXqX",
"qXqXqXqXqXqXqXqXqXqX                            O + ; < 3 5 4 , = @ O $ @ * & . . X O X X X         O @ - = - qXqXqXqXqXqXqXqXqX",
"qXqXqXqXqXqXqXqXqXqX          O : < 5 t 4 q q 2 > > y h B u e 2 $ X 4 2 q y a j k C z a M a < +     X @ ; = ; qXqXqXqXqXqXqXqXqX",
"qXqXqXqXqXqXqXqXqXqXO         > e t h k a e 4 < > t u B  .R u 3 @ t u k f i y q i z S A R S k ;     X @ ; = : qXqXqXqXqXqXqXqXqX",
"qXqXqXqXqXqXqXqXqXp . O       , u d c A q , t f j k C Q >.9. .q 4 i R J M j f h C f L C E P B ,     O $ - ; j qXqXqXqXqXqXqXqXqX",
"qXqXqXqXqXqXqXqXz.+.@ @       3 h k L z x z u < , f L $.6.>.;.Q Z  ...J d q 9 t u B ~ L R ~ S q       @ - - B $XqXqXqXqXqXqXqXqX",
"qXqXqXqXqXqXqXT.$XH = @       5 k B I z A i i 2 4 C | ;.;.$.6.>.g.n.9.;.I h h 2 + u ~ I  .$.P u       @ - - a $X;XU qXqXqXqXqXqX",
"qXqXqXqXqXqX{.$XH.b = @     O q B n Q R 0 n C J Y I %. .;.g.c.n.v.V.w./ | L B a e y J R >.$.R a     . @ - - 5 l.{.;Xp.qXqXqXqXqX",
"qXqXqXqXqX@X+Xz.S 4 : =       t A c Q B L ! J I R  .~ 3.e.c.Y.Y.U.A.V.6...R d t u i Q Y 3.%.Q k       + ; , 3 a p.E.>X<.qXqXqXqX",
"qXqXqXqXR.+Xh.Y V w , ;       u A B ~ z A S Q B Y  .g.g.x.P.|.%X&X*X[.V.3.Q R k 2 u $. .,.>./ z O   O O - - 3 5 6 } L.$XqXqXqXqX",
"qXqXqXH.L.a.S S } d ; ; O . @ i L A $.u y B R ~ 1.B.c.K.~.}.:X,X=X,X*XF.x.j.9.B 4 4 J ;.9.6. .c .   O O = - , _ p 6 U G.:XqXqXqX",
"qXqXp.G.U a U qXqXqX> :     + a Y A ~ y a Q ;.3.w.A.F.[.&X*X3X1X1X:X:X[.B.b.3.E C u f >.x.9.$.C *   . . ; - , qXqXD j p N.a.qXqX",
"qXqXU ) p O.qXqXqXqX, = O   + i Y L B r M I ~ ;.3.C.[.&X&X:X3X8X3X6X1X&XM.w.;.R J k h ;.j.w.;.J =   @ @ 1 : 1 qXqXqXqXm j V qXqX",
"qXqXqXqXqXqXqXqXqXqX> ; O   + f R R h t h M J ~ 7.F.%X X-X1X8X0X4X6X7X1X~.c.0.$.A a A 7.x.g.>.Y >   + @ < > < qXqXqXqXqXqXqXqXqX",
"qXqXqXqXqXqXqXqXqXqX, > +   @ l ~  .R J | g.w.j.V.}.%X1X6X1X9X9X5X7X7X1X%X~.V.7.;./ J 6.n.x.7.W 2   @ @ > > , qXqXqXqXqXqXqXqXqX",
"qXqXqXqXqXqXqXqXqXqX> > X   $ k Q ;.6.w.B.K.P. X%X-X-X1X3X7X8X8X7X3X1X1X<X-X{.K.A.P.A.x.B.b.0.W q   + + > i 3 qXqXqXqXqXqXqXqXqX",
"qXqXqXqXqXqXqXqXqXqX@ @ X   = z Q >.9.e.n.C.Y.#X=X,X&X6X6X1X7X7X6X6X1X-X=X%XI.K.A.e.V.V.b.b.g.Q q O @ + ; S q qXqXqXqXqXqXqXqXqX",
"qXqXqXqXqXqXqXqXqXqX= @ O   @ k W ;.6.x.n.B.].}.&X&X1X7X0X1X0X3X1X3X3X1X-X XB.~.P.c.c.A.V.c.0./ q   @ @ ; f 2 qXqXqXqXqXqXqXqXqX",
"qXqXqXqXqXqXqXqXqXqX; ;     . f R -.6.0.x.F.F.].].&X1X1X1X-X1X1X,X&X=X,X&X}.B.K.V.F.v.j.c.w.w.| 5 O $ @ = = = qXqXqXqXqXqXqXqXqX",
"qXqXqXqXqXqXqXqXqXqX= = O   . f I  .6.5.x.n.V.b.].*X-X&X-X X-X=X X].!. X X~.A.B.c.n.B.x.b.6.5./ , X @ O = = ; qXqXqXqXqXqXqXqXqX",
"qXqXqXqXqXqXqXqXqXqX* =     . i L / ,.7.t.6.n.F.]. X].&X X!.&X X[.].}.A.P.A.B.x.0.x.c.w.e.6.>.Q 2 X @ O , 4 , qXqXqXqXqXqXqXqXqX",
"qXqXqXqXqXqXqXqXqXqX@ =   O   u J ( -.5.>.e.B.A.K.F.[.&X[.]. X!.P.~.P.P.b.v.V.w.6.9.e.9.9.6.-.~ : + @ @ ; w : qXqXqXqXqXqXqXqXqX",
"qXqXqXqXqXqXqXqXqXqX@ @     O u c k 7 3 5 q n ;.n.F.Y.[.].P.].!.I.K.K.F.B.j.x.w.>.z q = ; < e k >   @ + @ , & qXqXqXqXqXqXqXqXqX",
"qXqXqXqXqXqXqXqXqXqX@ @   O   = 6 f h i <   O   O j 4.F.P.B.A.F.P.A.n.M.V.x.C ,         $ 4 5 ,     @ @ X     qXqXqXqXqXqXqXqXqX",
"qXqXqXqXqXqXqXqXqXqXX + O = @.`.'..X.XXXXX^.c O + + + h K.B.v.F.B.n.c.b...= $ = @ = L ^.XX.XXXXX_.-.> X X O O qXqXqXqXqXqXqXqXqX",
"qXqXqXqXqXqXqXqXqXqX    P ).XX`.'.'.'..X'.XXOX^.h = *   q 9.x.v.c.j.c.L + = : , ^ _.oXXXXXXXXXXX.X.X'.:.@ +   qXqXqXqXqXqXqXqXqX",
"qXqXqXqXqXqXqXqXqXqXO P )./.).).).).).)._._._.'.oXh = = = a 9.0.6.6. ., 5 q a 8.XX.X.X.X.X.X.X.X'.`.).).y.    qXqXqXqXqXqXqXqXqX",
"qXqXqXqXqXqXqXqXqXqX- W.S.S.W.W.W.W.W.W.^.^.).).).Z.3 = @ ; @ O O O 5 5 i k $..X.X`.`.`.`.`.`.`._./.W.W.^.!     qXqXqXqXqXqXqXqX",
"qXqXqXqXqXqXqXqXqX  z u.y.u.u.u.u.u.u.u.y.u.u.S.S.u.5 - ; ; @ # %   < 4 w t r.Q.^./.)./.(.^.^.^.^.^.D.u.y.y.@   qXqXqXqXqXqXqXqX",
"qXqXqXqXqXqXqXqXqXqXk :.:.:.5.-.@.-.-.@.@.:.5.8.8.q.e : = > @ o o   = : , 5 :.u.r.y.u.u.S.W.D.S.D.D.u.q.5.@.@ qXqXqXqXqXqXqXqXqX",
"qXqXqXqXqXqXqXqXqXqXt R Y W P c C c c c c J L L R R , = = ; @       + @ = > A @.! W R ( ,.q.e.y.m.u.t.;.L x   qXqXqXqXqXqXqXqXqX",
"qXqXqXqXqXqXqX      4 t u i q q 9 5 3 3 7 5 3 , 3 - $ @ $ =           O + $ : t t t t u i k k Y ;.;.^ k 6 @       qXqXqXqXqXqXqX",
"qXqXqXqXqX            = ; : = = ; @ @ + = * +     @ X   O                 O       X @ * $ @ = : , y 4 ; @               qXqXqXqX",
"qXqXqXqXqXqXqXqX                                                                                                qXqXqXqXqXqXqXqX",
"qXqXqXqXqXqXqXqXqXqXqXqXqXqXqXqXqXqXqXqXqXqXqXqXqXqXqXqXqXqXqXqXqXqXqXqXqXqXqXqXqXqXqXqXqXqXqXqXqXqXqXqXqXqXqXqXqXqXqXqXqXqXqXqX",
"qXqXqXqXqXqXqXqXqXqXqXqXqXqXqXqXqXqXqXqXqXqXqXqXqXqXqXqXqXqXqXqXqXqXqXqXqXqXqXqXqXqXqXqXqXqXqXqXqXqXqXqXqXqXqXqXqXqXqXqXqXqXqXqX",
"qXqXqXqXqXqXqXqXqXqXqXqXqXqXqXqXqXqXqXqXqXqXqXqXqXqXqXqXqXqXqXqXqXqXqXqXqXqXqXqXqXqXqXqXqXqXqXqXqXqXqXqXqXqXqXqXqXqXqXqXqXqXqXqX"
};
